<svg xmlns="http://www.w3.org/2000/svg" xmlns:v="https://svgstorm.com"
viewBox = "0 0 530 471"
width="530"
height="471">
<g fill="None" fill-opacity="0.0" stroke="#000000" stroke-opacity="0.00" stroke-width="0.3"><path d="
M 0.00 471.00 
L 530.00 471.00
L 530.00 0.00
L 0.00 0.00
L 0.00 471.00
M 269.00 35.00 
C 269.18 35.24 270.00 35.00 270.00 35.00
C 275.32 39.52 280.55 44.70 285.00 50.00
C 299.41 65.74 317.07 81.69 332.00 98.00
C 357.67 122.83 383.21 148.38 408.00 174.00
C 426.00 191.17 443.88 209.05 461.00 227.00
C 461.20 227.40 461.00 228.00 461.00 228.00
C 463.53 230.06 463.92 235.63 462.00 238.00
C 462.00 238.50 462.00 239.00 462.00 239.00
C 461.87 239.80 460.91 240.11 461.00 241.00
C 441.16 261.67 420.62 282.21 400.00 302.00
C 387.16 315.67 373.62 329.21 360.00 342.00
C 342.50 360.33 324.29 378.55 306.00 396.00
C 292.58 408.47 280.80 425.73 265.00 434.00
C 263.72 435.30 262.35 434.78 261.00 434.00
C 242.14 423.09 228.17 402.49 211.25 387.75 C 162.94 339.10 113.80 290.97 66.00 242.00
C 64.99 240.41 63.47 239.15 64.00 237.00
C 62.61 236.26 62.35 232.68 64.00 232.00
C 64.00 231.50 64.00 231.00 64.00 231.00
C 63.55 228.69 66.53 227.93 67.00 226.00
C 81.50 210.67 96.71 195.45 112.00 181.00
C 115.52 176.68 119.70 172.44 124.00 169.00
C 127.19 165.02 131.03 161.11 135.00 158.00
C 142.34 149.17 151.71 141.78 159.00 133.00
C 167.84 123.34 177.38 113.78 187.00 105.00
C 189.87 101.36 193.36 97.77 197.00 95.00
C 206.22 84.59 217.21 74.83 226.00 65.00
C 232.84 57.34 240.38 49.78 248.00 43.00
C 250.21 40.04 253.02 37.10 256.00 35.00
C 256.40 34.80 257.00 35.00 257.00 35.00
C 259.71 32.06 266.35 32.01 269.00 35.00 Z"/>
</g>
<g fill="None" fill-opacity="0.0" stroke="#91413E" stroke-opacity="0.47" stroke-width="0.3"><path d="
M 257.00 35.00 
C 260.76 33.59 265.21 33.65 269.00 35.00
C 266.35 32.01 259.71 32.06 257.00 35.00 Z"/>
</g>
<g fill="None" fill-opacity="0.0" stroke="#BF382C" stroke-opacity="1.00" stroke-width="0.3"><path d="
M 257.00 35.00 
C 253.15 39.65 248.63 44.22 244.00 48.00
C 228.83 64.00 212.95 79.88 197.00 95.00
C 196.46 96.66 194.44 97.33 194.00 99.00
C 184.49 109.33 174.29 119.55 164.00 129.00
C 154.83 139.00 144.96 148.88 135.00 158.00
C 131.81 161.98 127.97 165.89 124.00 169.00
C 123.77 169.16 124.00 170.00 124.00 170.00
C 104.69 190.80 83.11 210.40 64.00 231.00
C 64.00 231.00 64.00 231.50 64.00 232.00
C 64.00 233.67 64.00 235.33 64.00 237.00
C 122.84 299.67 186.96 359.80 247.00 422.00
C 250.86 426.81 255.62 431.89 261.00 434.00
C 262.35 434.78 263.72 435.30 265.00 434.00
C 280.28 424.53 291.77 407.65 306.00 396.00
C 323.50 377.67 341.71 359.45 360.00 342.00
C 366.34 334.18 374.71 327.78 381.00 320.00
C 407.50 292.67 434.71 265.45 462.00 239.00
C 462.00 239.00 462.00 238.50 462.00 238.00
C 462.13 234.53 462.13 231.16 461.00 228.00
C 442.67 210.50 424.45 192.29 407.00 174.00
C 382.66 148.17 356.29 123.79 332.00 98.00
C 313.67 80.50 295.45 62.29 278.00 44.00
C 274.70 41.46 271.44 38.31 269.00 35.00
C 265.21 33.65 260.76 33.59 257.00 35.00
M 269.00 169.00 
C 270.00 169.00 271.00 169.00 272.00 169.00
C 273.88 169.47 276.93 167.94 278.00 170.00
C 279.00 170.00 280.00 170.00 281.00 170.00
C 282.83 170.91 285.74 170.34 287.00 172.00
C 287.50 172.00 288.57 171.83 289.00 172.00
C 296.98 176.49 308.57 178.31 313.00 187.00
C 307.70 189.23 301.85 194.95 297.00 195.00
C 296.67 195.17 296.26 195.76 296.00 196.00
C 297.92 196.54 293.17 199.19 293.00 197.00
C 286.70 193.83 279.14 192.68 273.00 190.00
C 271.72 190.53 271.14 189.03 270.00 189.00
C 267.57 191.13 263.18 189.47 260.00 190.00
C 258.67 190.00 257.33 190.00 256.00 190.00
C 255.50 190.00 255.00 190.00 255.00 190.00
C 254.47 191.60 252.25 190.72 251.00 191.00
C 250.51 190.94 250.00 191.00 250.00 191.00
C 244.64 193.20 238.29 194.73 233.00 198.00
C 230.89 199.65 228.18 201.15 226.00 203.00
C 224.75 203.30 224.29 204.83 223.00 205.00
C 220.46 208.30 217.31 211.56 214.00 214.00
C 213.69 216.73 211.16 218.59 210.00 221.00
C 208.78 222.55 208.74 225.02 207.00 226.00
C 205.88 230.05 203.77 233.80 203.00 238.00
C 201.24 244.69 200.55 251.73 201.00 259.00
C 201.00 260.33 201.00 261.67 201.00 263.00
C 201.00 263.50 201.00 264.00 201.00 264.00
C 202.39 264.26 201.78 266.05 202.00 267.00
C 203.75 267.83 202.66 270.44 203.00 272.00
C 203.93 273.14 204.08 274.55 204.00 276.00
C 206.45 277.51 205.52 281.55 208.00 283.00
C 227.00 283.00 246.00 283.00 265.00 283.00 C 283.00 281.70 303.73 285.63 320.00 281.00
C 321.18 277.38 321.92 273.00 324.00 270.00
C 324.02 269.50 324.00 269.00 324.00 269.00
C 323.36 264.75 325.64 261.27 325.00 257.00
C 325.00 253.67 325.00 250.33 325.00 247.00
C 323.83 239.09 320.83 231.71 319.01 223.99 C 321.79 217.34 326.66 211.73 329.00 205.00
C 340.81 212.66 344.62 230.89 346.00 245.00
C 347.62 249.59 347.70 257.48 346.00 262.00
C 344.70 276.92 340.41 294.31 329.00 304.00
C 286.07 305.67 239.86 305.67 197.00 304.00
C 186.26 295.95 182.97 279.98 181.00 267.00
C 179.25 266.17 180.34 263.56 180.00 262.00
C 180.00 256.33 180.00 250.67 180.00 245.00
C 180.28 243.72 179.24 241.50 181.00 241.00
C 181.28 239.72 180.24 237.50 182.00 237.00
C 181.94 236.51 182.00 236.00 182.00 236.00
C 183.43 223.92 189.28 213.01 196.00 203.00
C 196.96 201.43 198.32 199.75 200.00 199.00
C 200.23 198.84 200.00 198.00 200.00 198.00
C 202.54 194.70 205.69 191.44 209.00 189.00
C 220.59 178.82 234.72 171.57 250.00 170.00
C 251.14 168.13 254.13 169.39 256.00 169.00
C 257.00 169.00 258.00 169.00 259.00 169.00
C 261.28 167.46 266.79 167.28 269.00 169.00
M 310.00 218.00 
C 309.87 218.80 308.91 219.11 309.00 220.00
C 307.45 221.55 307.17 224.18 305.00 225.00
C 304.87 225.80 303.91 226.11 304.00 227.00
C 301.80 229.55 300.83 233.18 298.00 235.00
C 297.91 235.48 298.00 236.00 298.00 236.00
C 291.03 245.55 284.47 255.18 278.00 265.00
C 276.11 267.62 273.65 270.24 271.00 272.00
C 264.87 275.11 256.72 274.96 251.00 271.00
C 249.07 269.74 247.09 268.00 246.00 266.00
C 245.27 264.66 244.66 263.36 244.00 262.00
C 243.90 261.52 244.00 260.50 244.00 260.00
C 242.48 258.04 242.28 252.89 244.00 251.00
C 249.12 234.91 269.17 230.36 281.08 220.08 C 287.82 215.40 294.45 210.76 301.25 206.25 C 307.88 203.26 314.96 192.84 322.25 196.76 C 323.44 204.85 313.79 211.30 310.00 218.00 Z"/>
</g>
<g fill="None" fill-opacity="0.0" stroke="#94443E" stroke-opacity="0.24" stroke-width="0.3"><path d="
M 248.00 43.00 
C 250.96 40.79 253.90 37.98 256.00 35.00
C 253.02 37.10 250.21 40.04 248.00 43.00 Z"/>
</g>
<g fill="None" fill-opacity="0.0" stroke="#A43931" stroke-opacity="0.85" stroke-width="0.3"><path d="
M 248.00 43.00 
C 247.19 45.04 244.73 45.97 244.00 48.00
C 248.63 44.22 253.15 39.65 257.00 35.00
C 257.00 35.00 256.40 34.80 256.00 35.00
C 253.90 37.98 250.96 40.79 248.00 43.00 Z"/>
</g>
<g fill="None" fill-opacity="0.0" stroke="#9F3531" stroke-opacity="0.78" stroke-width="0.3"><path d="
M 278.00 44.00 
C 275.95 40.55 272.00 38.42 270.00 35.00
C 270.00 35.00 269.18 35.24 269.00 35.00
C 271.44 38.31 274.70 41.46 278.00 44.00 Z"/>
</g>
<g fill="None" fill-opacity="0.0" stroke="#97403E" stroke-opacity="0.07" stroke-width="0.3"><path d="
M 278.00 44.00 
C 280.76 45.42 282.27 48.65 285.00 50.00
C 280.55 44.70 275.32 39.52 270.00 35.00
C 272.00 38.42 275.95 40.55 278.00 44.00 Z"/>
</g>
<g fill="None" fill-opacity="0.0" stroke="#975551" stroke-opacity="0.05" stroke-width="0.3"><path d="
M 226.00 65.00 
C 232.49 59.98 237.56 52.97 244.00 48.00
C 244.73 45.97 247.19 45.04 248.00 43.00
C 240.38 49.78 232.84 57.34 226.00 65.00 Z"/>
</g>
<g fill="None" fill-opacity="0.0" stroke="#9A3631" stroke-opacity="0.60" stroke-width="0.3"><path d="
M 332.00 98.00 
C 317.07 81.69 299.41 65.74 285.00 50.00
C 282.27 48.65 280.76 45.42 278.00 44.00
C 295.45 62.29 313.67 80.50 332.00 98.00 Z"/>
</g>
<g fill="None" fill-opacity="0.0" stroke="#9D3B36" stroke-opacity="0.59" stroke-width="0.3"><path d="
M 226.00 65.00 
C 217.21 74.83 206.22 84.59 197.00 95.00
C 212.95 79.88 228.83 64.00 244.00 48.00
C 237.56 52.97 232.49 59.98 226.00 65.00 Z"/>
</g>
<g fill="None" fill-opacity="0.0" stroke="#98423D" stroke-opacity="0.32" stroke-width="0.3"><path d="
M 187.00 105.00 
C 189.76 103.58 191.27 100.35 194.00 99.00
C 194.44 97.33 196.46 96.66 197.00 95.00
C 193.36 97.77 189.87 101.36 187.00 105.00 Z"/>
</g>
<g fill="None" fill-opacity="0.0" stroke="#983732" stroke-opacity="0.48" stroke-width="0.3"><path d="
M 407.00 174.00 
C 407.16 174.23 408.00 174.00 408.00 174.00
C 383.21 148.38 357.67 122.83 332.00 98.00
C 356.29 123.79 382.66 148.17 407.00 174.00 Z"/>
</g>
<g fill="None" fill-opacity="0.0" stroke="#9F2B28" stroke-opacity="0.79" stroke-width="0.3"><path d="
M 187.00 105.00 
C 179.99 113.49 170.96 120.55 164.00 129.00
C 174.29 119.55 184.49 109.33 194.00 99.00
C 191.27 100.35 189.76 103.58 187.00 105.00 Z"/>
</g>
<g fill="None" fill-opacity="0.0" stroke="#984541" stroke-opacity="0.07" stroke-width="0.3"><path d="
M 159.00 133.00 
C 161.04 132.19 161.97 129.73 164.00 129.00
C 170.96 120.55 179.99 113.49 187.00 105.00
C 177.38 113.78 167.84 123.34 159.00 133.00 Z"/>
</g>
<g fill="None" fill-opacity="0.0" stroke="#8F2D29" stroke-opacity="0.62" stroke-width="0.3"><path d="
M 159.00 133.00 
C 151.71 141.78 142.34 149.17 135.00 158.00
C 144.96 148.88 154.83 139.00 164.00 129.00
C 161.97 129.73 161.04 132.19 159.00 133.00 Z"/>
</g>
<g fill="None" fill-opacity="0.0" stroke="#963A39" stroke-opacity="0.47" stroke-width="0.3"><path d="
M 124.00 169.00 
C 127.97 165.89 131.81 161.98 135.00 158.00
C 131.03 161.11 127.19 165.02 124.00 169.00 Z"/>
</g>
<g fill="None" fill-opacity="0.0" stroke="#922B20" stroke-opacity="0.81" stroke-width="0.3"><path d="
M 259.00 169.00 
C 259.50 169.00 260.00 169.00 260.00 169.00
C 262.33 169.00 264.67 169.00 267.00 169.00
C 267.50 169.00 268.50 169.00 269.00 169.00
C 266.79 167.28 261.28 167.46 259.00 169.00 Z"/>
</g>
<g fill="None" fill-opacity="0.0" stroke="#98413D" stroke-opacity="0.27" stroke-width="0.3"><path d="
M 112.00 181.00 
C 116.47 177.97 119.57 172.98 124.00 170.00
C 124.00 170.00 123.77 169.16 124.00 169.00
C 119.70 172.44 115.52 176.68 112.00 181.00 Z"/>
</g>
<g fill="None" fill-opacity="0.0" stroke="#9B3C29" stroke-opacity="0.67" stroke-width="0.3"><path d="
M 250.00 170.00 
C 250.50 170.03 251.00 170.00 251.00 170.00
C 252.67 170.00 254.33 170.00 256.00 170.00
C 256.15 169.95 256.00 169.00 256.00 169.00
C 254.13 169.39 251.14 168.13 250.00 170.00 Z"/>
</g>
<g fill="None" fill-opacity="0.0" stroke="#A14D49" stroke-opacity="0.13" stroke-width="0.3"><path d="
M 256.00 170.00 
C 257.28 169.72 259.50 170.76 260.00 169.00
C 260.00 169.00 259.50 169.00 259.00 169.00
C 258.00 169.00 257.00 169.00 256.00 169.00
C 256.00 169.00 256.15 169.95 256.00 170.00 Z"/>
</g>
<g fill="None" fill-opacity="0.0" stroke="#000000" stroke-opacity="0.00" stroke-width="0.3"><path d="
M 256.00 170.00 
C 254.33 170.00 252.67 170.00 251.00 170.00
C 235.99 172.94 220.98 179.51 209.00 190.00
C 206.46 193.30 203.31 196.56 200.00 199.00
C 199.87 199.80 198.91 200.11 199.00 201.00
C 190.31 211.12 185.81 224.02 182.00 236.00
C 182.00 236.00 181.94 236.51 182.00 237.00
C 181.72 238.28 182.76 240.50 181.00 241.00
C 181.00 242.33 181.00 243.67 181.00 245.00
C 181.00 250.67 181.00 256.33 181.00 262.00
C 181.00 263.00 181.00 264.00 181.00 265.00
C 183.84 278.27 187.33 293.71 197.00 304.00
C 241.00 304.00 285.00 304.00 329.00 304.00
C 339.65 292.58 342.94 275.56 346.00 261.00
C 346.00 256.33 346.00 251.67 346.00 247.00
C 343.57 232.97 340.17 217.87 331.00 206.00
C 326.20 211.01 323.74 218.16 320.08 224.08 C 321.92 231.66 325.33 238.98 326.00 247.00
C 326.00 250.33 326.00 253.67 326.00 257.00
C 326.10 261.11 325.82 265.76 324.00 269.00
C 324.00 269.00 324.02 269.50 324.00 270.00
C 323.37 273.76 322.49 278.19 320.00 281.00
C 315.46 287.60 302.74 282.29 295.00 284.00 C 266.00 284.00 237.00 284.00 208.00 284.00
C 205.13 282.46 204.85 278.80 204.00 276.00
C 202.65 275.27 203.04 273.17 202.00 272.00
C 202.00 270.67 202.00 269.33 202.00 268.00
C 200.40 267.47 201.28 265.25 201.00 264.00
C 201.00 264.00 201.00 263.50 201.00 263.00
C 199.40 262.47 200.28 260.25 200.00 259.00
C 199.76 251.76 199.92 244.67 202.00 238.00
C 203.28 233.97 204.05 229.10 207.00 226.00
C 206.94 224.11 208.42 222.71 209.00 221.00
C 210.48 218.58 211.51 215.49 214.00 214.00
C 214.30 212.75 215.83 212.29 216.00 211.00
C 217.89 208.38 220.35 205.76 223.00 204.00
C 224.66 203.46 225.33 201.44 227.00 201.00
C 228.67 199.89 230.13 198.70 232.00 198.00
C 237.16 194.40 243.47 191.43 250.00 191.00
C 250.00 191.00 250.51 190.94 251.00 191.00
C 251.53 189.40 253.75 190.28 255.00 190.00
C 255.00 190.00 255.50 190.00 256.00 190.00
C 256.53 188.40 258.75 189.28 260.00 189.00
C 263.33 189.00 266.67 189.00 270.00 189.00
C 271.14 189.03 271.72 190.53 273.00 190.00
C 280.02 190.74 287.43 192.85 293.00 197.00
C 294.28 197.53 294.86 196.03 296.00 196.00
C 296.26 195.76 296.67 195.17 297.00 195.00
C 302.34 192.90 306.51 188.51 312.00 187.00
C 307.70 179.88 297.71 176.79 290.00 174.00
C 288.95 172.63 286.56 173.77 286.00 172.00
C 284.17 172.23 282.53 171.93 281.00 171.00
C 279.72 170.72 277.50 171.76 277.00 170.00
C 275.33 170.00 273.67 170.00 272.00 170.00
C 270.43 169.61 267.78 170.94 267.00 169.00
C 264.67 169.00 262.33 169.00 260.00 169.00
C 259.50 170.76 257.28 169.72 256.00 170.00 Z"/>
</g>
<g fill="None" fill-opacity="0.0" stroke="#B54942" stroke-opacity="0.09" stroke-width="0.3"><path d="
M 272.00 170.00 
C 271.85 169.95 272.00 169.00 272.00 169.00
C 271.00 169.00 270.00 169.00 269.00 169.00
C 268.50 169.00 267.50 169.00 267.00 169.00
C 267.78 170.94 270.43 169.61 272.00 170.00 Z"/>
</g>
<g fill="None" fill-opacity="0.0" stroke="#9D3D2C" stroke-opacity="0.62" stroke-width="0.3"><path d="
M 272.00 170.00 
C 273.67 170.00 275.33 170.00 277.00 170.00
C 277.50 170.00 278.00 170.00 278.00 170.00
C 276.93 167.94 273.88 169.47 272.00 169.00
C 272.00 169.00 271.85 169.95 272.00 170.00 Z"/>
</g>
<g fill="None" fill-opacity="0.0" stroke="#9E302A" stroke-opacity="0.78" stroke-width="0.3"><path d="
M 112.00 181.00 
C 97.50 196.33 82.29 211.55 67.00 226.00
C 66.53 227.93 63.55 228.69 64.00 231.00
C 83.11 210.40 104.69 190.80 124.00 170.00
C 119.57 172.98 116.47 177.97 112.00 181.00 Z"/>
</g>
<g fill="None" fill-opacity="0.0" stroke="#983B36" stroke-opacity="0.42" stroke-width="0.3"><path d="
M 209.00 189.00 
C 208.77 189.16 209.00 190.00 209.00 190.00
C 220.98 179.51 235.99 172.94 251.00 170.00
C 251.00 170.00 250.50 170.03 250.00 170.00
C 234.72 171.57 220.59 178.82 209.00 189.00 Z"/>
</g>
<g fill="None" fill-opacity="0.0" stroke="#8D4C3C" stroke-opacity="0.27" stroke-width="0.3"><path d="
M 281.00 171.00 
C 280.75 170.70 281.00 170.00 281.00 170.00
C 280.00 170.00 279.00 170.00 278.00 170.00
C 278.00 170.00 277.50 170.00 277.00 170.00
C 277.50 171.76 279.72 170.72 281.00 171.00 Z"/>
</g>
<g fill="None" fill-opacity="0.0" stroke="#983529" stroke-opacity="0.55" stroke-width="0.3"><path d="
M 281.00 171.00 
C 282.53 171.93 284.17 172.23 286.00 172.00
C 286.49 171.95 287.00 172.00 287.00 172.00
C 285.74 170.34 282.83 170.91 281.00 170.00
C 281.00 170.00 280.75 170.70 281.00 171.00 Z"/>
</g>
<g fill="None" fill-opacity="0.0" stroke="#874142" stroke-opacity="0.19" stroke-width="0.3"><path d="
M 290.00 174.00 
C 289.87 173.20 288.91 172.89 289.00 172.00
C 288.57 171.83 287.50 172.00 287.00 172.00
C 287.00 172.00 286.49 171.95 286.00 172.00
C 286.56 173.77 288.95 172.63 290.00 174.00 Z"/>
</g>
<g fill="None" fill-opacity="0.0" stroke="#964037" stroke-opacity="0.39" stroke-width="0.3"><path d="
M 290.00 174.00 
C 297.71 176.79 307.70 179.88 312.00 187.00
C 306.51 188.51 302.34 192.90 297.00 195.00
C 301.85 194.95 307.70 189.23 313.00 187.00
C 308.57 178.31 296.98 176.49 289.00 172.00
C 288.91 172.89 289.87 173.20 290.00 174.00 Z"/>
</g>
<g fill="None" fill-opacity="0.0" stroke="#A4312A" stroke-opacity="0.86" stroke-width="0.3"><path d="
M 461.00 228.00 
C 461.00 228.00 461.20 227.40 461.00 227.00
C 443.00 209.83 425.12 191.95 408.00 174.00
C 408.00 174.00 407.16 174.23 407.00 174.00
C 424.45 192.29 442.67 210.50 461.00 228.00 Z"/>
</g>
<g fill="None" fill-opacity="0.0" stroke="#953C38" stroke-opacity="0.20" stroke-width="0.3"><path d="
M 461.00 227.00 
C 443.88 209.05 426.00 191.17 408.00 174.00
C 425.12 191.95 443.00 209.83 461.00 227.00 Z"/>
</g>
<g fill="None" fill-opacity="0.0" stroke="#9A4943" stroke-opacity="0.10" stroke-width="0.3"><path d="
M 67.00 226.00 
C 82.29 211.55 97.50 196.33 112.00 181.00
C 96.71 195.45 81.50 210.67 67.00 226.00 Z"/>
</g>
<g fill="None" fill-opacity="0.0" stroke="#9C2923" stroke-opacity="0.72" stroke-width="0.3"><path d="
M 200.00 198.00 
C 203.45 195.95 205.58 192.00 209.00 190.00
C 209.00 190.00 208.77 189.16 209.00 189.00
C 205.69 191.44 202.54 194.70 200.00 198.00 Z"/>
</g>
<g fill="None" fill-opacity="0.0" stroke="#853E3A" stroke-opacity="0.09" stroke-width="0.3"><path d="
M 256.00 190.00 
C 257.33 190.00 258.67 190.00 260.00 190.00
C 260.22 189.87 260.00 189.00 260.00 189.00
C 258.75 189.28 256.53 188.40 256.00 190.00 Z"/>
</g>
<g fill="None" fill-opacity="0.0" stroke="#823931" stroke-opacity="0.27" stroke-width="0.3"><path d="
M 260.00 190.00 
C 263.18 189.47 267.57 191.13 270.00 189.00
C 266.67 189.00 263.33 189.00 260.00 189.00
C 260.00 189.00 260.22 189.87 260.00 190.00 Z"/>
</g>
<g fill="None" fill-opacity="0.0" stroke="#954340" stroke-opacity="0.11" stroke-width="0.3"><path d="
M 200.00 198.00 
C 200.00 198.00 200.23 198.84 200.00 199.00
C 203.31 196.56 206.46 193.30 209.00 190.00
C 205.58 192.00 203.45 195.95 200.00 198.00 Z"/>
</g>
<g fill="None" fill-opacity="0.0" stroke="#95392E" stroke-opacity="0.42" stroke-width="0.3"><path d="
M 251.00 191.00 
C 252.25 190.72 254.47 191.60 255.00 190.00
C 253.75 190.28 251.53 189.40 251.00 191.00 Z"/>
</g>
<g fill="None" fill-opacity="0.0" stroke="#913E35" stroke-opacity="0.38" stroke-width="0.3"><path d="
M 293.00 197.00 
C 287.43 192.85 280.02 190.74 273.00 190.00
C 279.14 192.68 286.70 193.83 293.00 197.00 Z"/>
</g>
<g fill="None" fill-opacity="0.0" stroke="#903C36" stroke-opacity="0.34" stroke-width="0.3"><path d="
M 232.00 198.00 
C 232.44 197.84 233.00 198.00 233.00 198.00
C 238.29 194.73 244.64 193.20 250.00 191.00
C 243.47 191.43 237.16 194.40 232.00 198.00 Z"/>
</g>
<g fill="None" fill-opacity="0.0" stroke="#973C35" stroke-opacity="0.42" stroke-width="0.3"><path d="
M 244.00 251.00 
C 253.45 233.58 275.61 227.05 290.70 214.70 C 299.15 209.66 306.50 202.82 315.23 198.23 C 329.66 192.87 313.30 211.81 310.00 217.00
C 309.78 217.36 310.00 218.00 310.00 218.00
C 313.79 211.30 323.44 204.85 322.25 196.76 C 314.96 192.84 307.88 203.26 301.25 206.25 C 294.45 210.76 287.82 215.40 281.08 220.08 C 269.17 230.36 249.12 234.91 244.00 251.00 Z"/>
</g>
<g fill="None" fill-opacity="0.0" stroke="#9D3A32" stroke-opacity="0.67" stroke-width="0.3"><path d="
M 293.00 197.00 
C 293.17 199.19 297.92 196.54 296.00 196.00
C 294.86 196.03 294.28 197.53 293.00 197.00 Z"/>
</g>
<g fill="None" fill-opacity="0.0" stroke="#000000" stroke-opacity="0.00" stroke-width="0.3"><path d="
M 244.00 251.00 
C 244.00 253.67 244.00 256.33 244.00 259.00
C 245.35 259.73 244.96 261.83 246.00 263.00
C 249.78 273.41 265.16 276.72 273.00 269.00
C 273.83 268.59 274.87 268.03 275.00 267.00
C 281.95 257.45 288.20 247.61 295.00 238.00
C 296.55 236.45 296.83 233.83 299.00 233.00
C 299.68 231.12 301.02 229.68 302.00 228.00
C 303.55 226.45 303.83 223.83 306.00 223.00
C 306.13 222.20 307.09 221.89 307.00 221.00
C 308.16 219.72 308.61 217.86 310.00 217.00
C 313.30 211.81 329.66 192.87 315.23 198.23 C 306.50 202.82 299.15 209.66 290.70 214.70 C 275.61 227.05 253.45 233.58 244.00 251.00 Z"/>
</g>
<g fill="None" fill-opacity="0.0" stroke="#91352C" stroke-opacity="0.54" stroke-width="0.3"><path d="
M 227.00 201.00 
C 226.87 201.80 225.91 202.11 226.00 203.00
C 228.18 201.15 230.89 199.65 233.00 198.00
C 233.00 198.00 232.44 197.84 232.00 198.00
C 230.13 198.70 228.67 199.89 227.00 201.00 Z"/>
</g>
<g fill="None" fill-opacity="0.0" stroke="#A02D29" stroke-opacity="0.66" stroke-width="0.3"><path d="
M 196.00 203.00 
C 197.25 202.70 197.71 201.17 199.00 201.00
C 198.91 200.11 199.87 199.80 200.00 199.00
C 198.32 199.75 196.96 201.43 196.00 203.00 Z"/>
</g>
<g fill="None" fill-opacity="0.0" stroke="#983E38" stroke-opacity="0.36" stroke-width="0.3"><path d="
M 196.00 203.00 
C 189.28 213.01 183.43 223.92 182.00 236.00
C 185.81 224.02 190.31 211.12 199.00 201.00
C 197.71 201.17 197.25 202.70 196.00 203.00 Z"/>
</g>
<g fill="None" fill-opacity="0.0" stroke="#944334" stroke-opacity="0.36" stroke-width="0.3"><path d="
M 223.00 204.00 
C 222.75 204.21 223.00 205.00 223.00 205.00
C 224.29 204.83 224.75 203.30 226.00 203.00
C 225.91 202.11 226.87 201.80 227.00 201.00
C 225.33 201.44 224.66 203.46 223.00 204.00 Z"/>
</g>
<g fill="None" fill-opacity="0.0" stroke="#8D4343" stroke-opacity="0.09" stroke-width="0.3"><path d="
M 216.00 211.00 
C 218.76 209.58 220.27 206.35 223.00 205.00
C 223.00 205.00 222.75 204.21 223.00 204.00
C 220.35 205.76 217.89 208.38 216.00 211.00 Z"/>
</g>
<g fill="None" fill-opacity="0.0" stroke="#97342D" stroke-opacity="0.66" stroke-width="0.3"><path d="
M 216.00 211.00 
C 215.83 212.29 214.30 212.75 214.00 214.00
C 217.31 211.56 220.46 208.30 223.00 205.00
C 220.27 206.35 218.76 209.58 216.00 211.00 Z"/>
</g>
<g fill="None" fill-opacity="0.0" stroke="#973C35" stroke-opacity="0.38" stroke-width="0.3"><path d="
M 325.00 247.00 
C 325.11 247.21 326.00 247.00 326.00 247.00
C 325.33 238.98 321.92 231.66 320.08 224.08 C 323.74 218.16 326.20 211.01 331.00 206.00
C 340.17 217.87 343.57 232.97 346.00 247.00
C 346.00 246.50 345.97 245.50 346.00 245.00
C 344.62 230.89 340.81 212.66 329.00 205.00
C 326.66 211.73 321.79 217.34 319.01 223.99 C 320.83 231.71 323.83 239.09 325.00 247.00 Z"/>
</g>
<g fill="None" fill-opacity="0.0" stroke="#98413D" stroke-opacity="0.36" stroke-width="0.3"><path d="
M 209.00 221.00 
C 209.20 220.75 210.00 221.00 210.00 221.00
C 211.16 218.59 213.69 216.73 214.00 214.00
C 211.51 215.49 210.48 218.58 209.00 221.00 Z"/>
</g>
<g fill="None" fill-opacity="0.0" stroke="#9E4B49" stroke-opacity="0.23" stroke-width="0.3"><path d="
M 307.00 221.00 
C 307.80 220.87 308.11 219.91 309.00 220.00
C 308.91 219.11 309.87 218.80 310.00 218.00
C 310.00 218.00 309.78 217.36 310.00 217.00
C 308.61 217.86 308.16 219.72 307.00 221.00 Z"/>
</g>
<g fill="None" fill-opacity="0.0" stroke="#963528" stroke-opacity="0.67" stroke-width="0.3"><path d="
M 307.00 221.00 
C 307.09 221.89 306.13 222.20 306.00 223.00
C 305.87 223.80 304.91 224.11 305.00 225.00
C 307.17 224.18 307.45 221.55 309.00 220.00
C 308.11 219.91 307.80 220.87 307.00 221.00 Z"/>
</g>
<g fill="None" fill-opacity="0.0" stroke="#9B362A" stroke-opacity="0.58" stroke-width="0.3"><path d="
M 207.00 226.00 
C 208.74 225.02 208.78 222.55 210.00 221.00
C 210.00 221.00 209.20 220.75 209.00 221.00
C 208.42 222.71 206.94 224.11 207.00 226.00 Z"/>
</g>
<g fill="None" fill-opacity="0.0" stroke="#964845" stroke-opacity="0.20" stroke-width="0.3"><path d="
M 302.00 228.00 
C 302.80 227.87 303.11 226.91 304.00 227.00
C 303.91 226.11 304.87 225.80 305.00 225.00
C 304.91 224.11 305.87 223.80 306.00 223.00
C 303.83 223.83 303.55 226.45 302.00 228.00 Z"/>
</g>
<g fill="None" fill-opacity="0.0" stroke="#99443D" stroke-opacity="0.35" stroke-width="0.3"><path d="
M 202.00 238.00 
C 202.11 237.79 203.00 238.00 203.00 238.00
C 203.77 233.80 205.88 230.05 207.00 226.00
C 204.05 229.10 203.28 233.97 202.00 238.00 Z"/>
</g>
<g fill="None" fill-opacity="0.0" stroke="#973732" stroke-opacity="0.57" stroke-width="0.3"><path d="
M 302.00 228.00 
C 301.02 229.68 299.68 231.12 299.00 233.00
C 298.87 233.80 297.91 234.11 298.00 235.00
C 300.83 233.18 301.80 229.55 304.00 227.00
C 303.11 226.91 302.80 227.87 302.00 228.00 Z"/>
</g>
<g fill="None" fill-opacity="0.0" stroke="#8D3731" stroke-opacity="0.51" stroke-width="0.3"><path d="
M 462.00 238.00 
C 463.92 235.63 463.53 230.06 461.00 228.00
C 462.13 231.16 462.13 234.53 462.00 238.00 Z"/>
</g>
<g fill="None" fill-opacity="0.0" stroke="#8D474A" stroke-opacity="0.13" stroke-width="0.3"><path d="
M 64.00 237.00 
C 64.00 235.33 64.00 233.67 64.00 232.00
C 62.35 232.68 62.61 236.26 64.00 237.00 Z"/>
</g>
<g fill="None" fill-opacity="0.0" stroke="#8E4644" stroke-opacity="0.16" stroke-width="0.3"><path d="
M 295.00 238.00 
C 296.25 237.70 296.71 236.17 298.00 236.00
C 298.00 236.00 297.91 235.48 298.00 235.00
C 297.91 234.11 298.87 233.80 299.00 233.00
C 296.83 233.83 296.55 236.45 295.00 238.00 Z"/>
</g>
<g fill="None" fill-opacity="0.0" stroke="#974239" stroke-opacity="0.42" stroke-width="0.3"><path d="
M 295.00 238.00 
C 288.20 247.61 281.95 257.45 275.00 267.00
C 276.25 266.70 276.71 265.17 278.00 265.00
C 284.47 255.18 291.03 245.55 298.00 236.00
C 296.71 236.17 296.25 237.70 295.00 238.00 Z"/>
</g>
<g fill="None" fill-opacity="0.0" stroke="#A7362D" stroke-opacity="0.87" stroke-width="0.3"><path d="
M 66.00 242.00 
C 126.83 301.33 186.21 362.71 247.00 422.00
C 186.96 359.80 122.84 299.67 64.00 237.00
C 63.47 239.15 64.99 240.41 66.00 242.00 Z"/>
</g>
<g fill="None" fill-opacity="0.0" stroke="#9B4238" stroke-opacity="0.40" stroke-width="0.3"><path d="
M 181.00 241.00 
C 182.76 240.50 181.72 238.28 182.00 237.00
C 180.24 237.50 181.28 239.72 181.00 241.00 Z"/>
</g>
<g fill="None" fill-opacity="0.0" stroke="#9C3F35" stroke-opacity="0.47" stroke-width="0.3"><path d="
M 200.00 259.00 
C 200.00 259.04 201.00 259.00 201.00 259.00
C 200.55 251.73 201.24 244.69 203.00 238.00
C 203.00 238.00 202.11 237.79 202.00 238.00
C 199.92 244.67 199.76 251.76 200.00 259.00 Z"/>
</g>
<g fill="None" fill-opacity="0.0" stroke="#AE3529" stroke-opacity="0.87" stroke-width="0.3"><path d="
M 381.00 320.00 
C 387.82 314.65 393.22 307.30 400.00 302.00
C 419.84 281.33 440.38 260.79 461.00 241.00
C 460.91 240.11 461.87 239.80 462.00 239.00
C 434.71 265.45 407.50 292.67 381.00 320.00 Z"/>
</g>
<g fill="None" fill-opacity="0.0" stroke="#982D25" stroke-opacity="0.69" stroke-width="0.3"><path d="
M 180.00 245.00 
C 180.00 244.96 181.00 245.00 181.00 245.00
C 181.00 243.67 181.00 242.33 181.00 241.00
C 179.24 241.50 180.28 243.72 180.00 245.00 Z"/>
</g>
<g fill="None" fill-opacity="0.0" stroke="#94352D" stroke-opacity="0.21" stroke-width="0.3"><path d="
M 400.00 302.00 
C 420.62 282.21 441.16 261.67 461.00 241.00
C 440.38 260.79 419.84 281.33 400.00 302.00 Z"/>
</g>
<g fill="None" fill-opacity="0.0" stroke="#973E39" stroke-opacity="0.20" stroke-width="0.3"><path d="
M 261.00 434.00 
C 255.62 431.89 250.86 426.81 247.00 422.00
C 186.21 362.71 126.83 301.33 66.00 242.00
C 113.80 290.97 162.94 339.10 211.25 387.75 C 228.17 402.49 242.14 423.09 261.00 434.00 Z"/>
</g>
<g fill="None" fill-opacity="0.0" stroke="#9F4E47" stroke-opacity="0.20" stroke-width="0.3"><path d="
M 180.00 262.00 
C 180.00 262.05 181.00 262.00 181.00 262.00
C 181.00 256.33 181.00 250.67 181.00 245.00
C 181.00 245.00 180.00 244.96 180.00 245.00
C 180.00 250.67 180.00 256.33 180.00 262.00 Z"/>
</g>
<g fill="None" fill-opacity="0.0" stroke="#992B1F" stroke-opacity="0.73" stroke-width="0.3"><path d="
M 346.00 247.00 
C 346.00 251.67 346.00 256.33 346.00 261.00
C 346.00 261.50 346.00 262.00 346.00 262.00
C 347.70 257.48 347.62 249.59 346.00 245.00
C 345.97 245.50 346.00 246.50 346.00 247.00 Z"/>
</g>
<g fill="None" fill-opacity="0.0" stroke="#9F372F" stroke-opacity="0.60" stroke-width="0.3"><path d="
M 325.00 257.00 
C 325.00 257.02 326.00 257.00 326.00 257.00
C 326.00 253.67 326.00 250.33 326.00 247.00
C 326.00 247.00 325.11 247.21 325.00 247.00
C 325.00 250.33 325.00 253.67 325.00 257.00 Z"/>
</g>
<g fill="None" fill-opacity="0.0" stroke="#9F3336" stroke-opacity="0.64" stroke-width="0.3"><path d="
M 244.00 260.00 
C 244.00 259.50 244.00 259.00 244.00 259.00
C 244.00 256.33 244.00 253.67 244.00 251.00
C 242.28 252.89 242.48 258.04 244.00 260.00 Z"/>
</g>
<g fill="None" fill-opacity="0.0" stroke="#993B37" stroke-opacity="0.41" stroke-width="0.3"><path d="
M 324.00 269.00 
C 325.82 265.76 326.10 261.11 326.00 257.00
C 326.00 257.00 325.00 257.02 325.00 257.00
C 325.64 261.27 323.36 264.75 324.00 269.00 Z"/>
</g>
<g fill="None" fill-opacity="0.0" stroke="#994947" stroke-opacity="0.18" stroke-width="0.3"><path d="
M 201.00 263.00 
C 201.00 261.67 201.00 260.33 201.00 259.00
C 201.00 259.00 200.00 259.04 200.00 259.00
C 200.28 260.25 199.40 262.47 201.00 263.00 Z"/>
</g>
<g fill="None" fill-opacity="0.0" stroke="#9E5154" stroke-opacity="0.16" stroke-width="0.3"><path d="
M 244.00 260.00 
C 244.00 260.50 243.90 261.52 244.00 262.00
C 244.80 262.13 245.11 263.09 246.00 263.00
C 244.96 261.83 245.35 259.73 244.00 259.00
C 244.00 259.00 244.00 259.50 244.00 260.00 Z"/>
</g>
<g fill="None" fill-opacity="0.0" stroke="#983F38" stroke-opacity="0.40" stroke-width="0.3"><path d="
M 329.00 304.00 
C 340.41 294.31 344.70 276.92 346.00 262.00
C 346.00 262.00 346.00 261.50 346.00 261.00
C 342.94 275.56 339.65 292.58 329.00 304.00 Z"/>
</g>
<g fill="None" fill-opacity="0.0" stroke="#972F26" stroke-opacity="0.73" stroke-width="0.3"><path d="
M 181.00 267.00 
C 181.02 266.50 180.90 265.48 181.00 265.00
C 181.00 264.00 181.00 263.00 181.00 262.00
C 181.00 262.00 180.00 262.05 180.00 262.00
C 180.34 263.56 179.25 266.17 181.00 267.00 Z"/>
</g>
<g fill="None" fill-opacity="0.0" stroke="#933F3A" stroke-opacity="0.37" stroke-width="0.3"><path d="
M 246.00 266.00 
C 247.93 267.26 249.91 269.00 251.00 271.00
C 256.72 274.96 264.87 275.11 271.00 272.00
C 271.30 270.75 272.83 270.29 273.00 269.00
C 265.16 276.72 249.78 273.41 246.00 263.00
C 245.11 263.09 244.80 262.13 244.00 262.00
C 244.66 263.36 245.27 264.66 246.00 266.00 Z"/>
</g>
<g fill="None" fill-opacity="0.0" stroke="#863A39" stroke-opacity="0.36" stroke-width="0.3"><path d="
M 202.00 268.00 
C 202.00 267.50 202.00 267.00 202.00 267.00
C 201.78 266.05 202.39 264.26 201.00 264.00
C 201.28 265.25 200.40 267.47 202.00 268.00 Z"/>
</g>
<g fill="None" fill-opacity="0.0" stroke="#963C37" stroke-opacity="0.42" stroke-width="0.3"><path d="
M 181.00 267.00 
C 182.97 279.98 186.26 295.95 197.00 304.00
C 187.33 293.71 183.84 278.27 181.00 265.00
C 180.90 265.48 181.02 266.50 181.00 267.00 Z"/>
</g>
<g fill="None" fill-opacity="0.0" stroke="#96312C" stroke-opacity="0.73" stroke-width="0.3"><path d="
M 275.00 267.00 
C 274.87 268.03 273.83 268.59 273.00 269.00
C 272.83 270.29 271.30 270.75 271.00 272.00
C 273.65 270.24 276.11 267.62 278.00 265.00
C 276.71 265.17 276.25 266.70 275.00 267.00 Z"/>
</g>
<g fill="None" fill-opacity="0.0" stroke="#95332B" stroke-opacity="0.83" stroke-width="0.3"><path d="
M 251.00 271.00 
C 249.91 269.00 247.93 267.26 246.00 266.00
C 247.09 268.00 249.07 269.74 251.00 271.00 Z"/>
</g>
<g fill="None" fill-opacity="0.0" stroke="#A13531" stroke-opacity="0.65" stroke-width="0.3"><path d="
M 202.00 268.00 
C 202.00 269.33 202.00 270.67 202.00 272.00
C 202.13 272.22 203.00 272.00 203.00 272.00
C 202.66 270.44 203.75 267.83 202.00 267.00
C 202.00 267.00 202.00 267.50 202.00 268.00 Z"/>
</g>
<g fill="None" fill-opacity="0.0" stroke="#933C33" stroke-opacity="0.38" stroke-width="0.3"><path d="
M 320.00 281.00 
C 322.49 278.19 323.37 273.76 324.00 270.00
C 321.92 273.00 321.18 277.38 320.00 281.00 Z"/>
</g>
<g fill="None" fill-opacity="0.0" stroke="#8D493D" stroke-opacity="0.19" stroke-width="0.3"><path d="
M 204.00 276.00 
C 204.08 274.55 203.93 273.14 203.00 272.00
C 203.00 272.00 202.13 272.22 202.00 272.00
C 203.04 273.17 202.65 275.27 204.00 276.00 Z"/>
</g>
<g fill="None" fill-opacity="0.0" stroke="#8D3631" stroke-opacity="0.41" stroke-width="0.3"><path d="
M 208.00 284.00 
C 207.96 284.00 208.00 283.00 208.00 283.00
C 205.52 281.55 206.45 277.51 204.00 276.00
C 204.85 278.80 205.13 282.46 208.00 284.00 Z"/>
</g>
<g fill="None" fill-opacity="0.0" stroke="#962F25" stroke-opacity="0.65" stroke-width="0.3"><path d="
M 208.00 283.00 
C 208.00 283.00 207.96 284.00 208.00 284.00
C 237.00 284.00 266.00 284.00 295.00 284.00 C 302.74 282.29 315.46 287.60 320.00 281.00
C 303.73 285.63 283.00 281.70 265.00 283.00 C 246.00 283.00 227.00 283.00 208.00 283.00 Z"/>
</g>
<g fill="None" fill-opacity="0.0" stroke="#98302C" stroke-opacity="0.44" stroke-width="0.3"><path d="
M 381.00 320.00 
C 374.71 327.78 366.34 334.18 360.00 342.00
C 373.62 329.21 387.16 315.67 400.00 302.00
C 393.22 307.30 387.82 314.65 381.00 320.00 Z"/>
</g>
<g fill="None" fill-opacity="0.0" stroke="#A13A33" stroke-opacity="0.59" stroke-width="0.3"><path d="
M 329.00 304.00 
C 285.00 304.00 241.00 304.00 197.00 304.00
C 239.86 305.67 286.07 305.67 329.00 304.00 Z"/>
</g>
<g fill="None" fill-opacity="0.0" stroke="#952C24" stroke-opacity="0.62" stroke-width="0.3"><path d="
M 306.00 396.00 
C 324.29 378.55 342.50 360.33 360.00 342.00
C 341.71 359.45 323.50 377.67 306.00 396.00 Z"/>
</g>
<g fill="None" fill-opacity="0.0" stroke="#9C332B" stroke-opacity="0.48" stroke-width="0.3"><path d="
M 265.00 434.00 
C 280.80 425.73 292.58 408.47 306.00 396.00
C 291.77 407.65 280.28 424.53 265.00 434.00 Z"/>
</g>
<g fill="#000000" fill-opacity="0.00" stroke="None">
<path d="
M 0.00 471.00 
L 530.00 471.00
L 530.00 0.00
L 0.00 0.00
L 0.00 471.00
M 269.00 35.00 
C 269.18 35.24 270.00 35.00 270.00 35.00
C 275.32 39.52 280.55 44.70 285.00 50.00
C 299.41 65.74 317.07 81.69 332.00 98.00
C 357.67 122.83 383.21 148.38 408.00 174.00
C 426.00 191.17 443.88 209.05 461.00 227.00
C 461.20 227.40 461.00 228.00 461.00 228.00
C 463.53 230.06 463.92 235.63 462.00 238.00
C 462.00 238.50 462.00 239.00 462.00 239.00
C 461.87 239.80 460.91 240.11 461.00 241.00
C 441.16 261.67 420.62 282.21 400.00 302.00
C 387.16 315.67 373.62 329.21 360.00 342.00
C 342.50 360.33 324.29 378.55 306.00 396.00
C 292.58 408.47 280.80 425.73 265.00 434.00
C 263.72 435.30 262.35 434.78 261.00 434.00
C 242.14 423.09 228.17 402.49 211.25 387.75 C 162.94 339.10 113.80 290.97 66.00 242.00
C 64.99 240.41 63.47 239.15 64.00 237.00
C 62.61 236.26 62.35 232.68 64.00 232.00
C 64.00 231.50 64.00 231.00 64.00 231.00
C 63.55 228.69 66.53 227.93 67.00 226.00
C 81.50 210.67 96.71 195.45 112.00 181.00
C 115.52 176.68 119.70 172.44 124.00 169.00
C 127.19 165.02 131.03 161.11 135.00 158.00
C 142.34 149.17 151.71 141.78 159.00 133.00
C 167.84 123.34 177.38 113.78 187.00 105.00
C 189.87 101.36 193.36 97.77 197.00 95.00
C 206.22 84.59 217.21 74.83 226.00 65.00
C 232.84 57.34 240.38 49.78 248.00 43.00
C 250.21 40.04 253.02 37.10 256.00 35.00
C 256.40 34.80 257.00 35.00 257.00 35.00
C 259.71 32.06 266.35 32.01 269.00 35.00 Z"/>
</g>
<g fill="#91413E" fill-opacity="0.47" stroke="None">
<path d="
M 257.00 35.00 
C 260.76 33.59 265.21 33.65 269.00 35.00
C 266.35 32.01 259.71 32.06 257.00 35.00 Z"/>
</g>
<g fill="#BF382C" fill-opacity="1.00" stroke="None">
<path d="
M 257.00 35.00 
C 253.15 39.65 248.63 44.22 244.00 48.00
C 228.83 64.00 212.95 79.88 197.00 95.00
C 196.46 96.66 194.44 97.33 194.00 99.00
C 184.49 109.33 174.29 119.55 164.00 129.00
C 154.83 139.00 144.96 148.88 135.00 158.00
C 131.81 161.98 127.97 165.89 124.00 169.00
C 123.77 169.16 124.00 170.00 124.00 170.00
C 104.69 190.80 83.11 210.40 64.00 231.00
C 64.00 231.00 64.00 231.50 64.00 232.00
C 64.00 233.67 64.00 235.33 64.00 237.00
C 122.84 299.67 186.96 359.80 247.00 422.00
C 250.86 426.81 255.62 431.89 261.00 434.00
C 262.35 434.78 263.72 435.30 265.00 434.00
C 280.28 424.53 291.77 407.65 306.00 396.00
C 323.50 377.67 341.71 359.45 360.00 342.00
C 366.34 334.18 374.71 327.78 381.00 320.00
C 407.50 292.67 434.71 265.45 462.00 239.00
C 462.00 239.00 462.00 238.50 462.00 238.00
C 462.13 234.53 462.13 231.16 461.00 228.00
C 442.67 210.50 424.45 192.29 407.00 174.00
C 382.66 148.17 356.29 123.79 332.00 98.00
C 313.67 80.50 295.45 62.29 278.00 44.00
C 274.70 41.46 271.44 38.31 269.00 35.00
C 265.21 33.65 260.76 33.59 257.00 35.00
M 269.00 169.00 
C 270.00 169.00 271.00 169.00 272.00 169.00
C 273.88 169.47 276.93 167.94 278.00 170.00
C 279.00 170.00 280.00 170.00 281.00 170.00
C 282.83 170.91 285.74 170.34 287.00 172.00
C 287.50 172.00 288.57 171.83 289.00 172.00
C 296.98 176.49 308.57 178.31 313.00 187.00
C 307.70 189.23 301.85 194.95 297.00 195.00
C 296.67 195.17 296.26 195.76 296.00 196.00
C 297.92 196.54 293.17 199.19 293.00 197.00
C 286.70 193.83 279.14 192.68 273.00 190.00
C 271.72 190.53 271.14 189.03 270.00 189.00
C 267.57 191.13 263.18 189.47 260.00 190.00
C 258.67 190.00 257.33 190.00 256.00 190.00
C 255.50 190.00 255.00 190.00 255.00 190.00
C 254.47 191.60 252.25 190.72 251.00 191.00
C 250.51 190.94 250.00 191.00 250.00 191.00
C 244.64 193.20 238.29 194.73 233.00 198.00
C 230.89 199.65 228.18 201.15 226.00 203.00
C 224.75 203.30 224.29 204.83 223.00 205.00
C 220.46 208.30 217.31 211.56 214.00 214.00
C 213.69 216.73 211.16 218.59 210.00 221.00
C 208.78 222.55 208.74 225.02 207.00 226.00
C 205.88 230.05 203.77 233.80 203.00 238.00
C 201.24 244.69 200.55 251.73 201.00 259.00
C 201.00 260.33 201.00 261.67 201.00 263.00
C 201.00 263.50 201.00 264.00 201.00 264.00
C 202.39 264.26 201.78 266.05 202.00 267.00
C 203.75 267.83 202.66 270.44 203.00 272.00
C 203.93 273.14 204.08 274.55 204.00 276.00
C 206.45 277.51 205.52 281.55 208.00 283.00
C 227.00 283.00 246.00 283.00 265.00 283.00 C 283.00 281.70 303.73 285.63 320.00 281.00
C 321.18 277.38 321.92 273.00 324.00 270.00
C 324.02 269.50 324.00 269.00 324.00 269.00
C 323.36 264.75 325.64 261.27 325.00 257.00
C 325.00 253.67 325.00 250.33 325.00 247.00
C 323.83 239.09 320.83 231.71 319.01 223.99 C 321.79 217.34 326.66 211.73 329.00 205.00
C 340.81 212.66 344.62 230.89 346.00 245.00
C 347.62 249.59 347.70 257.48 346.00 262.00
C 344.70 276.92 340.41 294.31 329.00 304.00
C 286.07 305.67 239.86 305.67 197.00 304.00
C 186.26 295.95 182.97 279.98 181.00 267.00
C 179.25 266.17 180.34 263.56 180.00 262.00
C 180.00 256.33 180.00 250.67 180.00 245.00
C 180.28 243.72 179.24 241.50 181.00 241.00
C 181.28 239.72 180.24 237.50 182.00 237.00
C 181.94 236.51 182.00 236.00 182.00 236.00
C 183.43 223.92 189.28 213.01 196.00 203.00
C 196.96 201.43 198.32 199.75 200.00 199.00
C 200.23 198.84 200.00 198.00 200.00 198.00
C 202.54 194.70 205.69 191.44 209.00 189.00
C 220.59 178.82 234.72 171.57 250.00 170.00
C 251.14 168.13 254.13 169.39 256.00 169.00
C 257.00 169.00 258.00 169.00 259.00 169.00
C 261.28 167.46 266.79 167.28 269.00 169.00
M 310.00 218.00 
C 309.87 218.80 308.91 219.11 309.00 220.00
C 307.45 221.55 307.17 224.18 305.00 225.00
C 304.87 225.80 303.91 226.11 304.00 227.00
C 301.80 229.55 300.83 233.18 298.00 235.00
C 297.91 235.48 298.00 236.00 298.00 236.00
C 291.03 245.55 284.47 255.18 278.00 265.00
C 276.11 267.62 273.65 270.24 271.00 272.00
C 264.87 275.11 256.72 274.96 251.00 271.00
C 249.07 269.74 247.09 268.00 246.00 266.00
C 245.27 264.66 244.66 263.36 244.00 262.00
C 243.90 261.52 244.00 260.50 244.00 260.00
C 242.48 258.04 242.28 252.89 244.00 251.00
C 249.12 234.91 269.17 230.36 281.08 220.08 C 287.82 215.40 294.45 210.76 301.25 206.25 C 307.88 203.26 314.96 192.84 322.25 196.76 C 323.44 204.85 313.79 211.30 310.00 218.00 Z"/>
</g>
<g fill="#94443E" fill-opacity="0.24" stroke="None">
<path d="
M 248.00 43.00 
C 250.96 40.79 253.90 37.98 256.00 35.00
C 253.02 37.10 250.21 40.04 248.00 43.00 Z"/>
</g>
<g fill="#A43931" fill-opacity="0.85" stroke="None">
<path d="
M 248.00 43.00 
C 247.19 45.04 244.73 45.97 244.00 48.00
C 248.63 44.22 253.15 39.65 257.00 35.00
C 257.00 35.00 256.40 34.80 256.00 35.00
C 253.90 37.98 250.96 40.79 248.00 43.00 Z"/>
</g>
<g fill="#9F3531" fill-opacity="0.78" stroke="None">
<path d="
M 278.00 44.00 
C 275.95 40.55 272.00 38.42 270.00 35.00
C 270.00 35.00 269.18 35.24 269.00 35.00
C 271.44 38.31 274.70 41.46 278.00 44.00 Z"/>
</g>
<g fill="#97403E" fill-opacity="0.07" stroke="None">
<path d="
M 278.00 44.00 
C 280.76 45.42 282.27 48.65 285.00 50.00
C 280.55 44.70 275.32 39.52 270.00 35.00
C 272.00 38.42 275.95 40.55 278.00 44.00 Z"/>
</g>
<g fill="#975551" fill-opacity="0.05" stroke="None">
<path d="
M 226.00 65.00 
C 232.49 59.98 237.56 52.97 244.00 48.00
C 244.73 45.97 247.19 45.04 248.00 43.00
C 240.38 49.78 232.84 57.34 226.00 65.00 Z"/>
</g>
<g fill="#9A3631" fill-opacity="0.60" stroke="None">
<path d="
M 332.00 98.00 
C 317.07 81.69 299.41 65.74 285.00 50.00
C 282.27 48.65 280.76 45.42 278.00 44.00
C 295.45 62.29 313.67 80.50 332.00 98.00 Z"/>
</g>
<g fill="#9D3B36" fill-opacity="0.59" stroke="None">
<path d="
M 226.00 65.00 
C 217.21 74.83 206.22 84.59 197.00 95.00
C 212.95 79.88 228.83 64.00 244.00 48.00
C 237.56 52.97 232.49 59.98 226.00 65.00 Z"/>
</g>
<g fill="#98423D" fill-opacity="0.32" stroke="None">
<path d="
M 187.00 105.00 
C 189.76 103.58 191.27 100.35 194.00 99.00
C 194.44 97.33 196.46 96.66 197.00 95.00
C 193.36 97.77 189.87 101.36 187.00 105.00 Z"/>
</g>
<g fill="#983732" fill-opacity="0.48" stroke="None">
<path d="
M 407.00 174.00 
C 407.16 174.23 408.00 174.00 408.00 174.00
C 383.21 148.38 357.67 122.83 332.00 98.00
C 356.29 123.79 382.66 148.17 407.00 174.00 Z"/>
</g>
<g fill="#9F2B28" fill-opacity="0.79" stroke="None">
<path d="
M 187.00 105.00 
C 179.99 113.49 170.96 120.55 164.00 129.00
C 174.29 119.55 184.49 109.33 194.00 99.00
C 191.27 100.35 189.76 103.58 187.00 105.00 Z"/>
</g>
<g fill="#984541" fill-opacity="0.07" stroke="None">
<path d="
M 159.00 133.00 
C 161.04 132.19 161.97 129.73 164.00 129.00
C 170.96 120.55 179.99 113.49 187.00 105.00
C 177.38 113.78 167.84 123.34 159.00 133.00 Z"/>
</g>
<g fill="#8F2D29" fill-opacity="0.62" stroke="None">
<path d="
M 159.00 133.00 
C 151.71 141.78 142.34 149.17 135.00 158.00
C 144.96 148.88 154.83 139.00 164.00 129.00
C 161.97 129.73 161.04 132.19 159.00 133.00 Z"/>
</g>
<g fill="#963A39" fill-opacity="0.47" stroke="None">
<path d="
M 124.00 169.00 
C 127.97 165.89 131.81 161.98 135.00 158.00
C 131.03 161.11 127.19 165.02 124.00 169.00 Z"/>
</g>
<g fill="#922B20" fill-opacity="0.81" stroke="None">
<path d="
M 259.00 169.00 
C 259.50 169.00 260.00 169.00 260.00 169.00
C 262.33 169.00 264.67 169.00 267.00 169.00
C 267.50 169.00 268.50 169.00 269.00 169.00
C 266.79 167.28 261.28 167.46 259.00 169.00 Z"/>
</g>
<g fill="#98413D" fill-opacity="0.27" stroke="None">
<path d="
M 112.00 181.00 
C 116.47 177.97 119.57 172.98 124.00 170.00
C 124.00 170.00 123.77 169.16 124.00 169.00
C 119.70 172.44 115.52 176.68 112.00 181.00 Z"/>
</g>
<g fill="#9B3C29" fill-opacity="0.67" stroke="None">
<path d="
M 250.00 170.00 
C 250.50 170.03 251.00 170.00 251.00 170.00
C 252.67 170.00 254.33 170.00 256.00 170.00
C 256.15 169.95 256.00 169.00 256.00 169.00
C 254.13 169.39 251.14 168.13 250.00 170.00 Z"/>
</g>
<g fill="#A14D49" fill-opacity="0.13" stroke="None">
<path d="
M 256.00 170.00 
C 257.28 169.72 259.50 170.76 260.00 169.00
C 260.00 169.00 259.50 169.00 259.00 169.00
C 258.00 169.00 257.00 169.00 256.00 169.00
C 256.00 169.00 256.15 169.95 256.00 170.00 Z"/>
</g>
<g fill="#000000" fill-opacity="0.00" stroke="None">
<path d="
M 256.00 170.00 
C 254.33 170.00 252.67 170.00 251.00 170.00
C 235.99 172.94 220.98 179.51 209.00 190.00
C 206.46 193.30 203.31 196.56 200.00 199.00
C 199.87 199.80 198.91 200.11 199.00 201.00
C 190.31 211.12 185.81 224.02 182.00 236.00
C 182.00 236.00 181.94 236.51 182.00 237.00
C 181.72 238.28 182.76 240.50 181.00 241.00
C 181.00 242.33 181.00 243.67 181.00 245.00
C 181.00 250.67 181.00 256.33 181.00 262.00
C 181.00 263.00 181.00 264.00 181.00 265.00
C 183.84 278.27 187.33 293.71 197.00 304.00
C 241.00 304.00 285.00 304.00 329.00 304.00
C 339.65 292.58 342.94 275.56 346.00 261.00
C 346.00 256.33 346.00 251.67 346.00 247.00
C 343.57 232.97 340.17 217.87 331.00 206.00
C 326.20 211.01 323.74 218.16 320.08 224.08 C 321.92 231.66 325.33 238.98 326.00 247.00
C 326.00 250.33 326.00 253.67 326.00 257.00
C 326.10 261.11 325.82 265.76 324.00 269.00
C 324.00 269.00 324.02 269.50 324.00 270.00
C 323.37 273.76 322.49 278.19 320.00 281.00
C 315.46 287.60 302.74 282.29 295.00 284.00 C 266.00 284.00 237.00 284.00 208.00 284.00
C 205.13 282.46 204.85 278.80 204.00 276.00
C 202.65 275.27 203.04 273.17 202.00 272.00
C 202.00 270.67 202.00 269.33 202.00 268.00
C 200.40 267.47 201.28 265.25 201.00 264.00
C 201.00 264.00 201.00 263.50 201.00 263.00
C 199.40 262.47 200.28 260.25 200.00 259.00
C 199.76 251.76 199.92 244.67 202.00 238.00
C 203.28 233.97 204.05 229.10 207.00 226.00
C 206.94 224.11 208.42 222.71 209.00 221.00
C 210.48 218.58 211.51 215.49 214.00 214.00
C 214.30 212.75 215.83 212.29 216.00 211.00
C 217.89 208.38 220.35 205.76 223.00 204.00
C 224.66 203.46 225.33 201.44 227.00 201.00
C 228.67 199.89 230.13 198.70 232.00 198.00
C 237.16 194.40 243.47 191.43 250.00 191.00
C 250.00 191.00 250.51 190.94 251.00 191.00
C 251.53 189.40 253.75 190.28 255.00 190.00
C 255.00 190.00 255.50 190.00 256.00 190.00
C 256.53 188.40 258.75 189.28 260.00 189.00
C 263.33 189.00 266.67 189.00 270.00 189.00
C 271.14 189.03 271.72 190.53 273.00 190.00
C 280.02 190.74 287.43 192.85 293.00 197.00
C 294.28 197.53 294.86 196.03 296.00 196.00
C 296.26 195.76 296.67 195.17 297.00 195.00
C 302.34 192.90 306.51 188.51 312.00 187.00
C 307.70 179.88 297.71 176.79 290.00 174.00
C 288.95 172.63 286.56 173.77 286.00 172.00
C 284.17 172.23 282.53 171.93 281.00 171.00
C 279.72 170.72 277.50 171.76 277.00 170.00
C 275.33 170.00 273.67 170.00 272.00 170.00
C 270.43 169.61 267.78 170.94 267.00 169.00
C 264.67 169.00 262.33 169.00 260.00 169.00
C 259.50 170.76 257.28 169.72 256.00 170.00 Z"/>
</g>
<g fill="#B54942" fill-opacity="0.09" stroke="None">
<path d="
M 272.00 170.00 
C 271.85 169.95 272.00 169.00 272.00 169.00
C 271.00 169.00 270.00 169.00 269.00 169.00
C 268.50 169.00 267.50 169.00 267.00 169.00
C 267.78 170.94 270.43 169.61 272.00 170.00 Z"/>
</g>
<g fill="#9D3D2C" fill-opacity="0.62" stroke="None">
<path d="
M 272.00 170.00 
C 273.67 170.00 275.33 170.00 277.00 170.00
C 277.50 170.00 278.00 170.00 278.00 170.00
C 276.93 167.94 273.88 169.47 272.00 169.00
C 272.00 169.00 271.85 169.95 272.00 170.00 Z"/>
</g>
<g fill="#9E302A" fill-opacity="0.78" stroke="None">
<path d="
M 112.00 181.00 
C 97.50 196.33 82.29 211.55 67.00 226.00
C 66.53 227.93 63.55 228.69 64.00 231.00
C 83.11 210.40 104.69 190.80 124.00 170.00
C 119.57 172.98 116.47 177.97 112.00 181.00 Z"/>
</g>
<g fill="#983B36" fill-opacity="0.42" stroke="None">
<path d="
M 209.00 189.00 
C 208.77 189.16 209.00 190.00 209.00 190.00
C 220.98 179.51 235.99 172.94 251.00 170.00
C 251.00 170.00 250.50 170.03 250.00 170.00
C 234.72 171.57 220.59 178.82 209.00 189.00 Z"/>
</g>
<g fill="#8D4C3C" fill-opacity="0.27" stroke="None">
<path d="
M 281.00 171.00 
C 280.75 170.70 281.00 170.00 281.00 170.00
C 280.00 170.00 279.00 170.00 278.00 170.00
C 278.00 170.00 277.50 170.00 277.00 170.00
C 277.50 171.76 279.72 170.72 281.00 171.00 Z"/>
</g>
<g fill="#983529" fill-opacity="0.55" stroke="None">
<path d="
M 281.00 171.00 
C 282.53 171.93 284.17 172.23 286.00 172.00
C 286.49 171.95 287.00 172.00 287.00 172.00
C 285.74 170.34 282.83 170.91 281.00 170.00
C 281.00 170.00 280.75 170.70 281.00 171.00 Z"/>
</g>
<g fill="#874142" fill-opacity="0.19" stroke="None">
<path d="
M 290.00 174.00 
C 289.87 173.20 288.91 172.89 289.00 172.00
C 288.57 171.83 287.50 172.00 287.00 172.00
C 287.00 172.00 286.49 171.95 286.00 172.00
C 286.56 173.77 288.95 172.63 290.00 174.00 Z"/>
</g>
<g fill="#964037" fill-opacity="0.39" stroke="None">
<path d="
M 290.00 174.00 
C 297.71 176.79 307.70 179.88 312.00 187.00
C 306.51 188.51 302.34 192.90 297.00 195.00
C 301.85 194.95 307.70 189.23 313.00 187.00
C 308.57 178.31 296.98 176.49 289.00 172.00
C 288.91 172.89 289.87 173.20 290.00 174.00 Z"/>
</g>
<g fill="#A4312A" fill-opacity="0.86" stroke="None">
<path d="
M 461.00 228.00 
C 461.00 228.00 461.20 227.40 461.00 227.00
C 443.00 209.83 425.12 191.95 408.00 174.00
C 408.00 174.00 407.16 174.23 407.00 174.00
C 424.45 192.29 442.67 210.50 461.00 228.00 Z"/>
</g>
<g fill="#953C38" fill-opacity="0.20" stroke="None">
<path d="
M 461.00 227.00 
C 443.88 209.05 426.00 191.17 408.00 174.00
C 425.12 191.95 443.00 209.83 461.00 227.00 Z"/>
</g>
<g fill="#9A4943" fill-opacity="0.10" stroke="None">
<path d="
M 67.00 226.00 
C 82.29 211.55 97.50 196.33 112.00 181.00
C 96.71 195.45 81.50 210.67 67.00 226.00 Z"/>
</g>
<g fill="#9C2923" fill-opacity="0.72" stroke="None">
<path d="
M 200.00 198.00 
C 203.45 195.95 205.58 192.00 209.00 190.00
C 209.00 190.00 208.77 189.16 209.00 189.00
C 205.69 191.44 202.54 194.70 200.00 198.00 Z"/>
</g>
<g fill="#853E3A" fill-opacity="0.09" stroke="None">
<path d="
M 256.00 190.00 
C 257.33 190.00 258.67 190.00 260.00 190.00
C 260.22 189.87 260.00 189.00 260.00 189.00
C 258.75 189.28 256.53 188.40 256.00 190.00 Z"/>
</g>
<g fill="#823931" fill-opacity="0.27" stroke="None">
<path d="
M 260.00 190.00 
C 263.18 189.47 267.57 191.13 270.00 189.00
C 266.67 189.00 263.33 189.00 260.00 189.00
C 260.00 189.00 260.22 189.87 260.00 190.00 Z"/>
</g>
<g fill="#954340" fill-opacity="0.11" stroke="None">
<path d="
M 200.00 198.00 
C 200.00 198.00 200.23 198.84 200.00 199.00
C 203.31 196.56 206.46 193.30 209.00 190.00
C 205.58 192.00 203.45 195.95 200.00 198.00 Z"/>
</g>
<g fill="#95392E" fill-opacity="0.42" stroke="None">
<path d="
M 251.00 191.00 
C 252.25 190.72 254.47 191.60 255.00 190.00
C 253.75 190.28 251.53 189.40 251.00 191.00 Z"/>
</g>
<g fill="#913E35" fill-opacity="0.38" stroke="None">
<path d="
M 293.00 197.00 
C 287.43 192.85 280.02 190.74 273.00 190.00
C 279.14 192.68 286.70 193.83 293.00 197.00 Z"/>
</g>
<g fill="#903C36" fill-opacity="0.34" stroke="None">
<path d="
M 232.00 198.00 
C 232.44 197.84 233.00 198.00 233.00 198.00
C 238.29 194.73 244.64 193.20 250.00 191.00
C 243.47 191.43 237.16 194.40 232.00 198.00 Z"/>
</g>
<g fill="#973C35" fill-opacity="0.42" stroke="None">
<path d="
M 244.00 251.00 
C 253.45 233.58 275.61 227.05 290.70 214.70 C 299.15 209.66 306.50 202.82 315.23 198.23 C 329.66 192.87 313.30 211.81 310.00 217.00
C 309.78 217.36 310.00 218.00 310.00 218.00
C 313.79 211.30 323.44 204.85 322.25 196.76 C 314.96 192.84 307.88 203.26 301.25 206.25 C 294.45 210.76 287.82 215.40 281.08 220.08 C 269.17 230.36 249.12 234.91 244.00 251.00 Z"/>
</g>
<g fill="#9D3A32" fill-opacity="0.67" stroke="None">
<path d="
M 293.00 197.00 
C 293.17 199.19 297.92 196.54 296.00 196.00
C 294.86 196.03 294.28 197.53 293.00 197.00 Z"/>
</g>
<g fill="#000000" fill-opacity="0.00" stroke="None">
<path d="
M 244.00 251.00 
C 244.00 253.67 244.00 256.33 244.00 259.00
C 245.35 259.73 244.96 261.83 246.00 263.00
C 249.78 273.41 265.16 276.72 273.00 269.00
C 273.83 268.59 274.87 268.03 275.00 267.00
C 281.95 257.45 288.20 247.61 295.00 238.00
C 296.55 236.45 296.83 233.83 299.00 233.00
C 299.68 231.12 301.02 229.68 302.00 228.00
C 303.55 226.45 303.83 223.83 306.00 223.00
C 306.13 222.20 307.09 221.89 307.00 221.00
C 308.16 219.72 308.61 217.86 310.00 217.00
C 313.30 211.81 329.66 192.87 315.23 198.23 C 306.50 202.82 299.15 209.66 290.70 214.70 C 275.61 227.05 253.45 233.58 244.00 251.00 Z"/>
</g>
<g fill="#91352C" fill-opacity="0.54" stroke="None">
<path d="
M 227.00 201.00 
C 226.87 201.80 225.91 202.11 226.00 203.00
C 228.18 201.15 230.89 199.65 233.00 198.00
C 233.00 198.00 232.44 197.84 232.00 198.00
C 230.13 198.70 228.67 199.89 227.00 201.00 Z"/>
</g>
<g fill="#A02D29" fill-opacity="0.66" stroke="None">
<path d="
M 196.00 203.00 
C 197.25 202.70 197.71 201.17 199.00 201.00
C 198.91 200.11 199.87 199.80 200.00 199.00
C 198.32 199.75 196.96 201.43 196.00 203.00 Z"/>
</g>
<g fill="#983E38" fill-opacity="0.36" stroke="None">
<path d="
M 196.00 203.00 
C 189.28 213.01 183.43 223.92 182.00 236.00
C 185.81 224.02 190.31 211.12 199.00 201.00
C 197.71 201.17 197.25 202.70 196.00 203.00 Z"/>
</g>
<g fill="#944334" fill-opacity="0.36" stroke="None">
<path d="
M 223.00 204.00 
C 222.75 204.21 223.00 205.00 223.00 205.00
C 224.29 204.83 224.75 203.30 226.00 203.00
C 225.91 202.11 226.87 201.80 227.00 201.00
C 225.33 201.44 224.66 203.46 223.00 204.00 Z"/>
</g>
<g fill="#8D4343" fill-opacity="0.09" stroke="None">
<path d="
M 216.00 211.00 
C 218.76 209.58 220.27 206.35 223.00 205.00
C 223.00 205.00 222.75 204.21 223.00 204.00
C 220.35 205.76 217.89 208.38 216.00 211.00 Z"/>
</g>
<g fill="#97342D" fill-opacity="0.66" stroke="None">
<path d="
M 216.00 211.00 
C 215.83 212.29 214.30 212.75 214.00 214.00
C 217.31 211.56 220.46 208.30 223.00 205.00
C 220.27 206.35 218.76 209.58 216.00 211.00 Z"/>
</g>
<g fill="#973C35" fill-opacity="0.38" stroke="None">
<path d="
M 325.00 247.00 
C 325.11 247.21 326.00 247.00 326.00 247.00
C 325.33 238.98 321.92 231.66 320.08 224.08 C 323.74 218.16 326.20 211.01 331.00 206.00
C 340.17 217.87 343.57 232.97 346.00 247.00
C 346.00 246.50 345.97 245.50 346.00 245.00
C 344.62 230.89 340.81 212.66 329.00 205.00
C 326.66 211.73 321.79 217.34 319.01 223.99 C 320.83 231.71 323.83 239.09 325.00 247.00 Z"/>
</g>
<g fill="#98413D" fill-opacity="0.36" stroke="None">
<path d="
M 209.00 221.00 
C 209.20 220.75 210.00 221.00 210.00 221.00
C 211.16 218.59 213.69 216.73 214.00 214.00
C 211.51 215.49 210.48 218.58 209.00 221.00 Z"/>
</g>
<g fill="#9E4B49" fill-opacity="0.23" stroke="None">
<path d="
M 307.00 221.00 
C 307.80 220.87 308.11 219.91 309.00 220.00
C 308.91 219.11 309.87 218.80 310.00 218.00
C 310.00 218.00 309.78 217.36 310.00 217.00
C 308.61 217.86 308.16 219.72 307.00 221.00 Z"/>
</g>
<g fill="#963528" fill-opacity="0.67" stroke="None">
<path d="
M 307.00 221.00 
C 307.09 221.89 306.13 222.20 306.00 223.00
C 305.87 223.80 304.91 224.11 305.00 225.00
C 307.17 224.18 307.45 221.55 309.00 220.00
C 308.11 219.91 307.80 220.87 307.00 221.00 Z"/>
</g>
<g fill="#9B362A" fill-opacity="0.58" stroke="None">
<path d="
M 207.00 226.00 
C 208.74 225.02 208.78 222.55 210.00 221.00
C 210.00 221.00 209.20 220.75 209.00 221.00
C 208.42 222.71 206.94 224.11 207.00 226.00 Z"/>
</g>
<g fill="#964845" fill-opacity="0.20" stroke="None">
<path d="
M 302.00 228.00 
C 302.80 227.87 303.11 226.91 304.00 227.00
C 303.91 226.11 304.87 225.80 305.00 225.00
C 304.91 224.11 305.87 223.80 306.00 223.00
C 303.83 223.83 303.55 226.45 302.00 228.00 Z"/>
</g>
<g fill="#99443D" fill-opacity="0.35" stroke="None">
<path d="
M 202.00 238.00 
C 202.11 237.79 203.00 238.00 203.00 238.00
C 203.77 233.80 205.88 230.05 207.00 226.00
C 204.05 229.10 203.28 233.97 202.00 238.00 Z"/>
</g>
<g fill="#973732" fill-opacity="0.57" stroke="None">
<path d="
M 302.00 228.00 
C 301.02 229.68 299.68 231.12 299.00 233.00
C 298.87 233.80 297.91 234.11 298.00 235.00
C 300.83 233.18 301.80 229.55 304.00 227.00
C 303.11 226.91 302.80 227.87 302.00 228.00 Z"/>
</g>
<g fill="#8D3731" fill-opacity="0.51" stroke="None">
<path d="
M 462.00 238.00 
C 463.92 235.63 463.53 230.06 461.00 228.00
C 462.13 231.16 462.13 234.53 462.00 238.00 Z"/>
</g>
<g fill="#8D474A" fill-opacity="0.13" stroke="None">
<path d="
M 64.00 237.00 
C 64.00 235.33 64.00 233.67 64.00 232.00
C 62.35 232.68 62.61 236.26 64.00 237.00 Z"/>
</g>
<g fill="#8E4644" fill-opacity="0.16" stroke="None">
<path d="
M 295.00 238.00 
C 296.25 237.70 296.71 236.17 298.00 236.00
C 298.00 236.00 297.91 235.48 298.00 235.00
C 297.91 234.11 298.87 233.80 299.00 233.00
C 296.83 233.83 296.55 236.45 295.00 238.00 Z"/>
</g>
<g fill="#974239" fill-opacity="0.42" stroke="None">
<path d="
M 295.00 238.00 
C 288.20 247.61 281.95 257.45 275.00 267.00
C 276.25 266.70 276.71 265.17 278.00 265.00
C 284.47 255.18 291.03 245.55 298.00 236.00
C 296.71 236.17 296.25 237.70 295.00 238.00 Z"/>
</g>
<g fill="#A7362D" fill-opacity="0.87" stroke="None">
<path d="
M 66.00 242.00 
C 126.83 301.33 186.21 362.71 247.00 422.00
C 186.96 359.80 122.84 299.67 64.00 237.00
C 63.47 239.15 64.99 240.41 66.00 242.00 Z"/>
</g>
<g fill="#9B4238" fill-opacity="0.40" stroke="None">
<path d="
M 181.00 241.00 
C 182.76 240.50 181.72 238.28 182.00 237.00
C 180.24 237.50 181.28 239.72 181.00 241.00 Z"/>
</g>
<g fill="#9C3F35" fill-opacity="0.47" stroke="None">
<path d="
M 200.00 259.00 
C 200.00 259.04 201.00 259.00 201.00 259.00
C 200.55 251.73 201.24 244.69 203.00 238.00
C 203.00 238.00 202.11 237.79 202.00 238.00
C 199.92 244.67 199.76 251.76 200.00 259.00 Z"/>
</g>
<g fill="#AE3529" fill-opacity="0.87" stroke="None">
<path d="
M 381.00 320.00 
C 387.82 314.65 393.22 307.30 400.00 302.00
C 419.84 281.33 440.38 260.79 461.00 241.00
C 460.91 240.11 461.87 239.80 462.00 239.00
C 434.71 265.45 407.50 292.67 381.00 320.00 Z"/>
</g>
<g fill="#982D25" fill-opacity="0.69" stroke="None">
<path d="
M 180.00 245.00 
C 180.00 244.96 181.00 245.00 181.00 245.00
C 181.00 243.67 181.00 242.33 181.00 241.00
C 179.24 241.50 180.28 243.72 180.00 245.00 Z"/>
</g>
<g fill="#94352D" fill-opacity="0.21" stroke="None">
<path d="
M 400.00 302.00 
C 420.62 282.21 441.16 261.67 461.00 241.00
C 440.38 260.79 419.84 281.33 400.00 302.00 Z"/>
</g>
<g fill="#973E39" fill-opacity="0.20" stroke="None">
<path d="
M 261.00 434.00 
C 255.62 431.89 250.86 426.81 247.00 422.00
C 186.21 362.71 126.83 301.33 66.00 242.00
C 113.80 290.97 162.94 339.10 211.25 387.75 C 228.17 402.49 242.14 423.09 261.00 434.00 Z"/>
</g>
<g fill="#9F4E47" fill-opacity="0.20" stroke="None">
<path d="
M 180.00 262.00 
C 180.00 262.05 181.00 262.00 181.00 262.00
C 181.00 256.33 181.00 250.67 181.00 245.00
C 181.00 245.00 180.00 244.96 180.00 245.00
C 180.00 250.67 180.00 256.33 180.00 262.00 Z"/>
</g>
<g fill="#992B1F" fill-opacity="0.73" stroke="None">
<path d="
M 346.00 247.00 
C 346.00 251.67 346.00 256.33 346.00 261.00
C 346.00 261.50 346.00 262.00 346.00 262.00
C 347.70 257.48 347.62 249.59 346.00 245.00
C 345.97 245.50 346.00 246.50 346.00 247.00 Z"/>
</g>
<g fill="#9F372F" fill-opacity="0.60" stroke="None">
<path d="
M 325.00 257.00 
C 325.00 257.02 326.00 257.00 326.00 257.00
C 326.00 253.67 326.00 250.33 326.00 247.00
C 326.00 247.00 325.11 247.21 325.00 247.00
C 325.00 250.33 325.00 253.67 325.00 257.00 Z"/>
</g>
<g fill="#9F3336" fill-opacity="0.64" stroke="None">
<path d="
M 244.00 260.00 
C 244.00 259.50 244.00 259.00 244.00 259.00
C 244.00 256.33 244.00 253.67 244.00 251.00
C 242.28 252.89 242.48 258.04 244.00 260.00 Z"/>
</g>
<g fill="#993B37" fill-opacity="0.41" stroke="None">
<path d="
M 324.00 269.00 
C 325.82 265.76 326.10 261.11 326.00 257.00
C 326.00 257.00 325.00 257.02 325.00 257.00
C 325.64 261.27 323.36 264.75 324.00 269.00 Z"/>
</g>
<g fill="#994947" fill-opacity="0.18" stroke="None">
<path d="
M 201.00 263.00 
C 201.00 261.67 201.00 260.33 201.00 259.00
C 201.00 259.00 200.00 259.04 200.00 259.00
C 200.28 260.25 199.40 262.47 201.00 263.00 Z"/>
</g>
<g fill="#9E5154" fill-opacity="0.16" stroke="None">
<path d="
M 244.00 260.00 
C 244.00 260.50 243.90 261.52 244.00 262.00
C 244.80 262.13 245.11 263.09 246.00 263.00
C 244.96 261.83 245.35 259.73 244.00 259.00
C 244.00 259.00 244.00 259.50 244.00 260.00 Z"/>
</g>
<g fill="#983F38" fill-opacity="0.40" stroke="None">
<path d="
M 329.00 304.00 
C 340.41 294.31 344.70 276.92 346.00 262.00
C 346.00 262.00 346.00 261.50 346.00 261.00
C 342.94 275.56 339.65 292.58 329.00 304.00 Z"/>
</g>
<g fill="#972F26" fill-opacity="0.73" stroke="None">
<path d="
M 181.00 267.00 
C 181.02 266.50 180.90 265.48 181.00 265.00
C 181.00 264.00 181.00 263.00 181.00 262.00
C 181.00 262.00 180.00 262.05 180.00 262.00
C 180.34 263.56 179.25 266.17 181.00 267.00 Z"/>
</g>
<g fill="#933F3A" fill-opacity="0.37" stroke="None">
<path d="
M 246.00 266.00 
C 247.93 267.26 249.91 269.00 251.00 271.00
C 256.72 274.96 264.87 275.11 271.00 272.00
C 271.30 270.75 272.83 270.29 273.00 269.00
C 265.16 276.72 249.78 273.41 246.00 263.00
C 245.11 263.09 244.80 262.13 244.00 262.00
C 244.66 263.36 245.27 264.66 246.00 266.00 Z"/>
</g>
<g fill="#863A39" fill-opacity="0.36" stroke="None">
<path d="
M 202.00 268.00 
C 202.00 267.50 202.00 267.00 202.00 267.00
C 201.78 266.05 202.39 264.26 201.00 264.00
C 201.28 265.25 200.40 267.47 202.00 268.00 Z"/>
</g>
<g fill="#963C37" fill-opacity="0.42" stroke="None">
<path d="
M 181.00 267.00 
C 182.97 279.98 186.26 295.95 197.00 304.00
C 187.33 293.71 183.84 278.27 181.00 265.00
C 180.90 265.48 181.02 266.50 181.00 267.00 Z"/>
</g>
<g fill="#96312C" fill-opacity="0.73" stroke="None">
<path d="
M 275.00 267.00 
C 274.87 268.03 273.83 268.59 273.00 269.00
C 272.83 270.29 271.30 270.75 271.00 272.00
C 273.65 270.24 276.11 267.62 278.00 265.00
C 276.71 265.17 276.25 266.70 275.00 267.00 Z"/>
</g>
<g fill="#95332B" fill-opacity="0.83" stroke="None">
<path d="
M 251.00 271.00 
C 249.91 269.00 247.93 267.26 246.00 266.00
C 247.09 268.00 249.07 269.74 251.00 271.00 Z"/>
</g>
<g fill="#A13531" fill-opacity="0.65" stroke="None">
<path d="
M 202.00 268.00 
C 202.00 269.33 202.00 270.67 202.00 272.00
C 202.13 272.22 203.00 272.00 203.00 272.00
C 202.66 270.44 203.75 267.83 202.00 267.00
C 202.00 267.00 202.00 267.50 202.00 268.00 Z"/>
</g>
<g fill="#933C33" fill-opacity="0.38" stroke="None">
<path d="
M 320.00 281.00 
C 322.49 278.19 323.37 273.76 324.00 270.00
C 321.92 273.00 321.18 277.38 320.00 281.00 Z"/>
</g>
<g fill="#8D493D" fill-opacity="0.19" stroke="None">
<path d="
M 204.00 276.00 
C 204.08 274.55 203.93 273.14 203.00 272.00
C 203.00 272.00 202.13 272.22 202.00 272.00
C 203.04 273.17 202.65 275.27 204.00 276.00 Z"/>
</g>
<g fill="#8D3631" fill-opacity="0.41" stroke="None">
<path d="
M 208.00 284.00 
C 207.96 284.00 208.00 283.00 208.00 283.00
C 205.52 281.55 206.45 277.51 204.00 276.00
C 204.85 278.80 205.13 282.46 208.00 284.00 Z"/>
</g>
<g fill="#962F25" fill-opacity="0.65" stroke="None">
<path d="
M 208.00 283.00 
C 208.00 283.00 207.96 284.00 208.00 284.00
C 237.00 284.00 266.00 284.00 295.00 284.00 C 302.74 282.29 315.46 287.60 320.00 281.00
C 303.73 285.63 283.00 281.70 265.00 283.00 C 246.00 283.00 227.00 283.00 208.00 283.00 Z"/>
</g>
<g fill="#98302C" fill-opacity="0.44" stroke="None">
<path d="
M 381.00 320.00 
C 374.71 327.78 366.34 334.18 360.00 342.00
C 373.62 329.21 387.16 315.67 400.00 302.00
C 393.22 307.30 387.82 314.65 381.00 320.00 Z"/>
</g>
<g fill="#A13A33" fill-opacity="0.59" stroke="None">
<path d="
M 329.00 304.00 
C 285.00 304.00 241.00 304.00 197.00 304.00
C 239.86 305.67 286.07 305.67 329.00 304.00 Z"/>
</g>
<g fill="#952C24" fill-opacity="0.62" stroke="None">
<path d="
M 306.00 396.00 
C 324.29 378.55 342.50 360.33 360.00 342.00
C 341.71 359.45 323.50 377.67 306.00 396.00 Z"/>
</g>
<g fill="#9C332B" fill-opacity="0.48" stroke="None">
<path d="
M 265.00 434.00 
C 280.80 425.73 292.58 408.47 306.00 396.00
C 291.77 407.65 280.28 424.53 265.00 434.00 Z"/>
</g>
</svg>